<mxfile host="65bd71144e" modified="2020-12-04T10:48:31.998Z" agent="5.0 (X11; Linux x86_64) AppleWebKit/537.36 (KHTML, like Gecko) Code/1.51.1 Chrome/83.0.4103.122 Electron/9.3.3 Safari/537.36" etag="4R5gtZbbwsuG3dZVGI0k" version="13.6.5">
    <diagram id="11g-v3EIjomnrVHuHFAP" name="Page-1">
        <mxGraphModel dx="1341" dy="1012" grid="1" gridSize="10" guides="1" tooltips="1" connect="1" arrows="1" fold="1" page="1" pageScale="1" pageWidth="827" pageHeight="1169" math="0" shadow="0">
            <root>
                <mxCell id="0"/>
                <mxCell id="1" parent="0"/>
                <mxCell id="3" value="" style="rounded=0;whiteSpace=wrap;html=1;fillColor=#f5f5f5;strokeColor=#666666;fontColor=#333333;" parent="1" vertex="1">
                    <mxGeometry x="4" width="820" height="250" as="geometry"/>
                </mxCell>
                <mxCell id="5" value="DP" style="ellipse;whiteSpace=wrap;html=1;aspect=fixed;fillColor=#dae8fc;strokeColor=#6c8ebf;fontSize=20;fontStyle=1;fontColor=#858585;" parent="1" vertex="1">
                    <mxGeometry x="50" y="50" width="100" height="100" as="geometry"/>
                </mxCell>
                <mxCell id="6" value="Name" style="rounded=0;whiteSpace=wrap;html=1;fillColor=#dae8fc;strokeColor=#6c8ebf;align=left;spacingLeft=20;fontSize=20;fontStyle=1;fontColor=#858585;" parent="1" vertex="1">
                    <mxGeometry x="190" y="50" width="210" height="50" as="geometry"/>
                </mxCell>
                <mxCell id="7" value="Summary" style="rounded=0;whiteSpace=wrap;html=1;fillColor=#dae8fc;strokeColor=#6c8ebf;align=left;spacingLeft=20;fontSize=20;fontStyle=1;fontColor=#858585;" parent="1" vertex="1">
                    <mxGeometry x="190" y="100" width="210" height="50" as="geometry"/>
                </mxCell>
                <mxCell id="8" value="Profile" style="rounded=0;whiteSpace=wrap;html=1;fillColor=#dae8fc;strokeColor=#6c8ebf;fontSize=14;fontStyle=2;" parent="1" vertex="1">
                    <mxGeometry x="24" y="190" width="120" height="60" as="geometry"/>
                </mxCell>
                <mxCell id="9" value="Skills" style="rounded=0;whiteSpace=wrap;html=1;fillColor=#dae8fc;strokeColor=#6c8ebf;fontSize=14;fontStyle=2;" parent="1" vertex="1">
                    <mxGeometry x="194" y="190" width="120" height="60" as="geometry"/>
                </mxCell>
                <mxCell id="10" value="Work Experience" style="rounded=0;whiteSpace=wrap;html=1;fillColor=#dae8fc;strokeColor=#6c8ebf;fontSize=14;fontStyle=2;" parent="1" vertex="1">
                    <mxGeometry x="358" y="190" width="120" height="60" as="geometry"/>
                </mxCell>
                <mxCell id="11" value="Personal projects&lt;br style=&quot;font-size: 14px;&quot;&gt;and&lt;br style=&quot;font-size: 14px;&quot;&gt;Hobbies" style="rounded=0;whiteSpace=wrap;html=1;fillColor=#dae8fc;strokeColor=#6c8ebf;fontSize=14;fontStyle=2;" parent="1" vertex="1">
                    <mxGeometry x="524" y="190" width="120" height="60" as="geometry"/>
                </mxCell>
                <mxCell id="12" value="Downloads" style="rounded=0;whiteSpace=wrap;html=1;fillColor=#dae8fc;strokeColor=#6c8ebf;fontSize=14;fontStyle=2;" parent="1" vertex="1">
                    <mxGeometry x="684" y="190" width="120" height="60" as="geometry"/>
                </mxCell>
                <mxCell id="13" value="Category" style="rounded=0;whiteSpace=wrap;html=1;fillColor=#fff2cc;strokeColor=#d6b656;align=left;spacingLeft=20;fontSize=20;fontStyle=1;" parent="1" vertex="1">
                    <mxGeometry x="24" y="270" width="136" height="40" as="geometry"/>
                </mxCell>
                <mxCell id="18" value="" style="rounded=1;whiteSpace=wrap;html=1;fillColor=#dae8fc;strokeColor=#6c8ebf;arcSize=6;" parent="1" vertex="1">
                    <mxGeometry x="24" y="330" width="530" height="200" as="geometry"/>
                </mxCell>
                <mxCell id="30" value="L" style="rounded=1;whiteSpace=wrap;html=1;fillColor=#fff2cc;strokeColor=#d6b656;" vertex="1" parent="1">
                    <mxGeometry x="44" y="350" width="30" height="30" as="geometry"/>
                </mxCell>
                <mxCell id="31" value="Card" style="rounded=1;whiteSpace=wrap;html=1;fillColor=#fff2cc;strokeColor=#d6b656;" vertex="1" parent="1">
                    <mxGeometry x="84" y="350" width="210" height="30" as="geometry"/>
                </mxCell>
                <mxCell id="32" value="right content" style="rounded=1;whiteSpace=wrap;html=1;fillColor=#fff2cc;strokeColor=#d6b656;" vertex="1" parent="1">
                    <mxGeometry x="424" y="350" width="110" height="30" as="geometry"/>
                </mxCell>
                <mxCell id="42" style="edgeStyle=orthogonalEdgeStyle;rounded=0;orthogonalLoop=1;jettySize=auto;html=1;exitX=1;exitY=0.5;exitDx=0;exitDy=0;entryX=1;entryY=0.5;entryDx=0;entryDy=0;" edge="1" parent="1" source="33" target="41">
                    <mxGeometry relative="1" as="geometry"/>
                </mxCell>
                <mxCell id="33" value="Card body" style="rounded=1;whiteSpace=wrap;html=1;" vertex="1" parent="1">
                    <mxGeometry x="44" y="390" width="490" height="80" as="geometry"/>
                </mxCell>
                <mxCell id="34" value="Card Footer" style="rounded=1;whiteSpace=wrap;html=1;fillColor=#fff2cc;strokeColor=#d6b656;" vertex="1" parent="1">
                    <mxGeometry x="44" y="484.5" width="490" height="25.5" as="geometry"/>
                </mxCell>
                <mxCell id="41" value="" style="rounded=1;whiteSpace=wrap;html=1;arcSize=2;" vertex="1" parent="1">
                    <mxGeometry x="24" y="550" width="530" height="580" as="geometry"/>
                </mxCell>
                <mxCell id="45" value="Collapsible Header" style="rounded=1;whiteSpace=wrap;html=1;fillColor=#dae8fc;strokeColor=#6c8ebf;" vertex="1" parent="1">
                    <mxGeometry x="72" y="580" width="460" height="30" as="geometry"/>
                </mxCell>
                <mxCell id="46" value="Collapsible text" style="rounded=1;whiteSpace=wrap;html=1;fillColor=#dae8fc;strokeColor=#6c8ebf;arcSize=6;" vertex="1" parent="1">
                    <mxGeometry x="46" y="610" width="486" height="90" as="geometry"/>
                </mxCell>
                <mxCell id="47" value="&amp;gt;" style="rounded=1;whiteSpace=wrap;html=1;fillColor=#dae8fc;strokeColor=#6c8ebf;" vertex="1" parent="1">
                    <mxGeometry x="160" y="270" width="40" height="40" as="geometry"/>
                </mxCell>
                <mxCell id="48" value="Label (Optional)" style="rounded=1;whiteSpace=wrap;html=1;fillColor=#fff2cc;strokeColor=#d6b656;" vertex="1" parent="1">
                    <mxGeometry x="48" y="860" width="124" height="30" as="geometry"/>
                </mxCell>
                <mxCell id="49" value="Text" style="rounded=1;whiteSpace=wrap;html=1;fillColor=#dae8fc;strokeColor=#6c8ebf;" vertex="1" parent="1">
                    <mxGeometry x="182" y="860" width="350" height="30" as="geometry"/>
                </mxCell>
                <mxCell id="50" value="List Header (Optional)" style="rounded=1;whiteSpace=wrap;html=1;fillColor=#fff2cc;strokeColor=#d6b656;" vertex="1" parent="1">
                    <mxGeometry x="44" y="980" width="486" height="30" as="geometry"/>
                </mxCell>
                <mxCell id="51" value="Iten1" style="rounded=1;whiteSpace=wrap;html=1;fillColor=#dae8fc;strokeColor=#6c8ebf;" vertex="1" parent="1">
                    <mxGeometry x="44" y="1010" width="486" height="30" as="geometry"/>
                </mxCell>
                <mxCell id="52" value="Item2" style="rounded=1;whiteSpace=wrap;html=1;fillColor=#dae8fc;strokeColor=#6c8ebf;" vertex="1" parent="1">
                    <mxGeometry x="44" y="1040" width="486" height="30" as="geometry"/>
                </mxCell>
                <mxCell id="53" value="Item 3" style="rounded=1;whiteSpace=wrap;html=1;fillColor=#dae8fc;strokeColor=#6c8ebf;" vertex="1" parent="1">
                    <mxGeometry x="44" y="1070" width="486" height="30" as="geometry"/>
                </mxCell>
                <mxCell id="54" value="" style="rounded=1;whiteSpace=wrap;html=1;fillColor=#fff2cc;strokeColor=#d6b656;" vertex="1" parent="1">
                    <mxGeometry x="48" y="580" width="24" height="30" as="geometry"/>
                </mxCell>
                <mxCell id="55" value="" style="rounded=1;whiteSpace=wrap;html=1;fillColor=#fff2cc;strokeColor=#d6b656;" vertex="1" parent="1">
                    <mxGeometry x="44" y="1010" width="24" height="30" as="geometry"/>
                </mxCell>
                <mxCell id="56" value="" style="rounded=1;whiteSpace=wrap;html=1;fillColor=#fff2cc;strokeColor=#d6b656;" vertex="1" parent="1">
                    <mxGeometry x="44" y="1040" width="24" height="30" as="geometry"/>
                </mxCell>
                <mxCell id="57" value="" style="rounded=1;whiteSpace=wrap;html=1;fillColor=#fff2cc;strokeColor=#d6b656;" vertex="1" parent="1">
                    <mxGeometry x="44" y="1070" width="24" height="30" as="geometry"/>
                </mxCell>
            </root>
        </mxGraphModel>
    </diagram>
</mxfile>